# xmcd
# 
# Track frame offsets:
#     150
#     12506
#     27644
#     40914
#     55244
#     68996
#     84379
#     96254
#     109363
#     123046
#     140223
#     155973
#     171798
#     182662
#     196510
#     209477
# 
# Disc length: 2970
# 
# Revision: 2
# Processed by: cddbd v1.5.2PL0 Copyright (c) Steve Scherf et al.
# Submitted via: BonkEnc v1.0.8
# 
DISCID=e90b9810
DTITLE=Various Artist - Vom Alpenrock und Volksmusik zum Schlager CD1
DYEAR=0
DGENRE=Volksmusik/ Schlager
TTITLE0=Die Klostertaler - Mir san da
TTITLE1=Chris Wolf - Lady Sunshine
TTITLE2=Piera Martell - Frühling, Frühling
TTITLE3=Tommy Steiner - Der Stern von Korsika
TTITLE4=Orig. Tiroler Spatzen - So a Edelweiss
TTITLE5=Demis Roussos - Schönes Mädchen aus Arcadia
TTITLE6=Kapelle Oberalp and the Lollipops - Schwiizer Alpenrock Melodie
TTITLE7=Jazz Gitti - Du haust mi
TTITLE8=Werner Schmid - Heimat ist ...
TTITLE9=Flamingos - Mir ist heute Nacht das Glück begegnet
TTITLE10=Grenzland Vagabunden aus Zöbern - Mädchen aus Slowenien
TTITLE11=Alpenformation - Es war einmal
TTITLE12=Orig. Neuberger Spatzen - Unsere Lieder klingen wieder
TTITLE13=Sandra Stein - Karibische Nacht
TTITLE14=Die Wahnsinns 5 - Alarm auf der Alm
TTITLE15=Bern Clüver - Mixican Girl
EXTD=
EXTT0=
EXTT1=
EXTT2=
EXTT3=
EXTT4=
EXTT5=
EXTT6=
EXTT7=
EXTT8=
EXTT9=
EXTT10=
EXTT11=
EXTT12=
EXTT13=
EXTT14=
EXTT15=
PLAYORDER=
